<?xml version="1.0" encoding="UTF-8" standalone="no"?>
<!-- Created with Inkscape (http://www.inkscape.org/) -->

<svg
   xmlns:dc="http://purl.org/dc/elements/1.1/"
   xmlns:cc="http://creativecommons.org/ns#"
   xmlns:rdf="http://www.w3.org/1999/02/22-rdf-syntax-ns#"
   xmlns:svg="http://www.w3.org/2000/svg"
   xmlns="http://www.w3.org/2000/svg"
   xmlns:sodipodi="http://sodipodi.sourceforge.net/DTD/sodipodi-0.dtd"
   xmlns:inkscape="http://www.inkscape.org/namespaces/inkscape"
   width="512"
   height="512"
   viewBox="0 0 511.99999 512.00001"
   id="svg2"
   version="1.1"
   inkscape:version="0.91 r13725"
   sodipodi:docname="screenoffbrowser_icon.svg"
   inkscape:export-filename="C:\Users\zhuowei\Documents\winprogress\uofthacks2017\uofthacks2017\ScreenCutter\app\src\main\res\mipmap-mdpi\ic_launcher.png"
   inkscape:export-xdpi="5.625"
   inkscape:export-ydpi="5.625">
  <defs
     id="defs4">
    <marker
       inkscape:stockid="Arrow1Mend"
       orient="auto"
       refY="0.0"
       refX="0.0"
       id="marker4627"
       style="overflow:visible;"
       inkscape:isstock="true">
      <path
         id="path4629"
         d="M 0.0,0.0 L 5.0,-5.0 L -12.5,0.0 L 5.0,5.0 L 0.0,0.0 z "
         style="fill-rule:evenodd;stroke:#000000;stroke-width:1pt;stroke-opacity:1;fill:#000000;fill-opacity:1"
         transform="scale(0.4) rotate(180) translate(10,0)" />
    </marker>
    <marker
       inkscape:stockid="Arrow1Lend"
       orient="auto"
       refY="0.0"
       refX="0.0"
       id="marker4581"
       style="overflow:visible;"
       inkscape:isstock="true">
      <path
         id="path4583"
         d="M 0.0,0.0 L 5.0,-5.0 L -12.5,0.0 L 5.0,5.0 L 0.0,0.0 z "
         style="fill-rule:evenodd;stroke:#ffffff;stroke-width:1pt;stroke-opacity:1;fill:#ffffff;fill-opacity:1"
         transform="scale(0.8) rotate(180) translate(12.5,0)" />
    </marker>
    <marker
       inkscape:stockid="Arrow1Mend"
       orient="auto"
       refY="0.0"
       refX="0.0"
       id="Arrow1Mend"
       style="overflow:visible;"
       inkscape:isstock="true">
      <path
         id="path4168"
         d="M 0.0,0.0 L 5.0,-5.0 L -12.5,0.0 L 5.0,5.0 L 0.0,0.0 z "
         style="fill-rule:evenodd;stroke:#000000;stroke-width:1pt;stroke-opacity:1;fill:#000000;fill-opacity:1"
         transform="scale(0.4) rotate(180) translate(10,0)" />
    </marker>
    <marker
       inkscape:stockid="Arrow1Mstart"
       orient="auto"
       refY="0.0"
       refX="0.0"
       id="Arrow1Mstart"
       style="overflow:visible"
       inkscape:isstock="true">
      <path
         id="path4165"
         d="M 0.0,0.0 L 5.0,-5.0 L -12.5,0.0 L 5.0,5.0 L 0.0,0.0 z "
         style="fill-rule:evenodd;stroke:#000000;stroke-width:1pt;stroke-opacity:1;fill:#000000;fill-opacity:1"
         transform="scale(0.4) translate(10,0)" />
    </marker>
    <marker
       inkscape:stockid="Arrow1Lend"
       orient="auto"
       refY="0.0"
       refX="0.0"
       id="marker4435"
       style="overflow:visible;"
       inkscape:isstock="true">
      <path
         id="path4437"
         d="M 0.0,0.0 L 5.0,-5.0 L -12.5,0.0 L 5.0,5.0 L 0.0,0.0 z "
         style="fill-rule:evenodd;stroke:#000000;stroke-width:1pt;stroke-opacity:1;fill:#000000;fill-opacity:1"
         transform="scale(0.8) rotate(180) translate(12.5,0)" />
    </marker>
    <marker
       inkscape:stockid="Arrow1Lend"
       orient="auto"
       refY="0.0"
       refX="0.0"
       id="Arrow1Lend"
       style="overflow:visible;"
       inkscape:isstock="true">
      <path
         id="path4162"
         d="M 0.0,0.0 L 5.0,-5.0 L -12.5,0.0 L 5.0,5.0 L 0.0,0.0 z "
         style="fill-rule:evenodd;stroke:#000000;stroke-width:1pt;stroke-opacity:1;fill:#000000;fill-opacity:1"
         transform="scale(0.8) rotate(180) translate(12.5,0)" />
    </marker>
    <filter
       style="color-interpolation-filters:sRGB;"
       inkscape:label="Drop Shadow"
       id="filter4796">
      <feFlood
         flood-opacity="0.25098"
         flood-color="rgb(0,0,0)"
         result="flood"
         id="feFlood4798" />
      <feComposite
         in="flood"
         in2="SourceGraphic"
         operator="in"
         result="composite1"
         id="feComposite4800" />
      <feGaussianBlur
         in="composite1"
         stdDeviation="12"
         result="blur"
         id="feGaussianBlur4802" />
      <feOffset
         dx="6"
         dy="6"
         result="offset"
         id="feOffset4804" />
      <feComposite
         in="SourceGraphic"
         in2="offset"
         operator="over"
         result="fbSourceGraphic"
         id="feComposite4806" />
      <feColorMatrix
         result="fbSourceGraphicAlpha"
         in="fbSourceGraphic"
         values="0 0 0 -1 0 0 0 0 -1 0 0 0 0 -1 0 0 0 0 1 0"
         id="feColorMatrix4808" />
      <feFlood
         id="feFlood4810"
         flood-opacity="0.25098"
         flood-color="rgb(0,0,0)"
         result="flood"
         in="fbSourceGraphic" />
      <feComposite
         id="feComposite4812"
         in2="fbSourceGraphic"
         in="flood"
         operator="in"
         result="composite1" />
      <feGaussianBlur
         id="feGaussianBlur4814"
         in="composite1"
         stdDeviation="12"
         result="blur" />
      <feOffset
         id="feOffset4816"
         dx="6"
         dy="6"
         result="offset" />
      <feComposite
         id="feComposite4818"
         in2="offset"
         in="fbSourceGraphic"
         operator="over"
         result="composite2" />
    </filter>
    <filter
       style="color-interpolation-filters:sRGB;"
       inkscape:label="Drop Shadow"
       id="filter4831">
      <feFlood
         flood-opacity="0.25098"
         flood-color="rgb(0,0,0)"
         result="flood"
         id="feFlood4833" />
      <feComposite
         in="flood"
         in2="SourceGraphic"
         operator="in"
         result="composite1"
         id="feComposite4835" />
      <feGaussianBlur
         in="composite1"
         stdDeviation="12"
         result="blur"
         id="feGaussianBlur4837" />
      <feOffset
         dx="6"
         dy="6"
         result="offset"
         id="feOffset4839" />
      <feComposite
         in="SourceGraphic"
         in2="offset"
         operator="over"
         result="composite2"
         id="feComposite4841" />
    </filter>
    <filter
       style="color-interpolation-filters:sRGB;"
       inkscape:label="Drop Shadow"
       id="filter5025">
      <feFlood
         flood-opacity="0.25098"
         flood-color="rgb(0,0,0)"
         result="flood"
         id="feFlood5027" />
      <feComposite
         in="flood"
         in2="SourceGraphic"
         operator="in"
         result="composite1"
         id="feComposite5029" />
      <feGaussianBlur
         in="composite1"
         stdDeviation="12"
         result="blur"
         id="feGaussianBlur5031" />
      <feOffset
         dx="6"
         dy="6"
         result="offset"
         id="feOffset5033" />
      <feComposite
         in="SourceGraphic"
         in2="offset"
         operator="over"
         result="composite2"
         id="feComposite5035" />
    </filter>
  </defs>
  <sodipodi:namedview
     id="base"
     pagecolor="#ffffff"
     bordercolor="#666666"
     borderopacity="1.0"
     inkscape:pageopacity="0.0"
     inkscape:pageshadow="2"
     inkscape:zoom="1"
     inkscape:cx="-22"
     inkscape:cy="192.69521"
     inkscape:document-units="px"
     inkscape:current-layer="layer2"
     showgrid="false"
     units="px"
     inkscape:window-width="1920"
     inkscape:window-height="1013"
     inkscape:window-x="-9"
     inkscape:window-y="-9"
     inkscape:window-maximized="1" />
  <metadata
     id="metadata7">
    <rdf:RDF>
      <cc:Work
         rdf:about="">
        <dc:format>image/svg+xml</dc:format>
        <dc:type
           rdf:resource="http://purl.org/dc/dcmitype/StillImage" />
        <dc:title></dc:title>
      </cc:Work>
    </rdf:RDF>
  </metadata>
  <g
     inkscape:groupmode="layer"
     id="layer2"
     inkscape:label="Circle"
     style="display:inline">
    <circle
       transform="translate(0,-540.36216)"
       style="display:inline;fill:#9c27b0;fill-opacity:1;fill-rule:evenodd;stroke:none;stroke-width:1.03293836px;stroke-linecap:butt;stroke-linejoin:miter;stroke-opacity:1"
       id="path3347"
       cx="256.01648"
       cy="796.3457"
       r="235" />
    <path
       id="path4875-1"
       d="m 222.24,182.24 c 3.68,-8 5.76,-16.8 5.76,-26.24 0,-35.36 -28.64,-64 -64,-64 -35.36,0 -64,28.64 -64,64 0,35.36 28.64,64 64,64 9.44,0 18.24,-2.08 26.24,-5.76 L 228,252 190.24,289.76 c -8,-3.68 -16.8,-5.76 -26.24,-5.76 -35.36,0 -64,28.64 -64,64 0,35.36 28.64,64 64,64 35.36,0 64,-28.64 64,-64 0,-9.44 -2.08,-18.24 -5.76,-26.24 L 260,284 l 112,112 48,0 0,-16 L 222.24,182.24 Z M 164,188 c -17.6,0 -32,-14.24 -32,-32 0,-17.76 14.4,-32 32,-32 17.6,0 32,14.24 32,32 0,17.76 -14.4,32 -32,32 z m 0,192 c -17.6,0 -32,-14.24 -32,-32 0,-17.76 14.4,-32 32,-32 17.6,0 32,14.24 32,32 0,17.76 -14.4,32 -32,32 z m 96,-120 c -4.48,0 -8,-3.52 -8,-8 0,-4.48 3.52,-8 8,-8 4.48,0 8,3.52 8,8 0,4.48 -3.52,8 -8,8 z m 112,-152 -96,96 32,32 112,-112 0,-16 z"
       inkscape:connector-curvature="0"
       style="display:inline;fill:#ffffff;fill-opacity:1;filter:url(#filter5025)" />
  </g>
  <g
     inkscape:groupmode="layer"
     id="layer3"
     inkscape:label="Top"
     style="display:inline" />
  <g
     inkscape:label="Top copy"
     id="g4679"
     inkscape:groupmode="layer" />
</svg>
